<svg xmlns="http://www.w3.org/2000/svg" width="128" height="128" viewBox="0 0 128 128" shape-rendering="crispEdges">
  <rect x="24" y="0" width="8" height="8" fill="rgb(25,130,155)"/>
  <rect x="96" y="0" width="8" height="8" fill="rgb(25,130,155)"/>
  <rect x="32" y="8" width="8" height="8" fill="rgb(25,130,155)"/>
  <rect x="88" y="8" width="8" height="8" fill="rgb(25,130,155)"/>
  <rect x="40" y="16" width="8" height="8" fill="rgb(25,130,155)"/>
  <rect x="80" y="16" width="8" height="8" fill="rgb(25,130,155)"/>
  <rect x="56" y="24" width="8" height="8" fill="rgb(8,150,175)"/>
  <rect x="64" y="24" width="8" height="8" fill="rgb(8,150,175)"/>
  <rect x="48" y="32" width="8" height="8" fill="rgb(8,150,175)"/>
  <rect x="56" y="32" width="8" height="8" fill="rgb(18,58,68)"/>
  <rect x="64" y="32" width="8" height="8" fill="rgb(18,58,68)"/>
  <rect x="72" y="32" width="8" height="8" fill="rgb(8,150,175)"/>
  <rect x="48" y="40" width="8" height="8" fill="rgb(8,150,175)"/>
  <rect x="56" y="40" width="8" height="8" fill="rgb(8,150,175)"/>
  <rect x="64" y="40" width="8" height="8" fill="rgb(8,150,175)"/>
  <rect x="72" y="40" width="8" height="8" fill="rgb(8,150,175)"/>
  <rect x="40" y="48" width="8" height="8" fill="rgb(8,150,175)"/>
  <rect x="48" y="48" width="8" height="8" fill="rgb(18,58,68)"/>
  <rect x="56" y="48" width="8" height="8" fill="rgb(18,58,68)"/>
  <rect x="64" y="48" width="8" height="8" fill="rgb(18,58,68)"/>
  <rect x="72" y="48" width="8" height="8" fill="rgb(18,58,68)"/>
  <rect x="80" y="48" width="8" height="8" fill="rgb(8,150,175)"/>
  <rect x="24" y="56" width="8" height="8" fill="rgb(25,130,155)"/>
  <rect x="32" y="56" width="8" height="8" fill="rgb(8,150,175)"/>
  <rect x="40" y="56" width="8" height="8" fill="rgb(18,58,68)"/>
  <rect x="48" y="56" width="8" height="8" fill="rgb(18,58,68)"/>
  <rect x="56" y="56" width="8" height="8" fill="rgb(18,58,68)"/>
  <rect x="64" y="56" width="8" height="8" fill="rgb(18,58,68)"/>
  <rect x="72" y="56" width="8" height="8" fill="rgb(18,58,68)"/>
  <rect x="80" y="56" width="8" height="8" fill="rgb(18,58,68)"/>
  <rect x="88" y="56" width="8" height="8" fill="rgb(8,150,175)"/>
  <rect x="96" y="56" width="8" height="8" fill="rgb(25,130,155)"/>
  <rect x="32" y="64" width="8" height="8" fill="rgb(8,150,175)"/>
  <rect x="40" y="64" width="8" height="8" fill="rgb(18,58,68)"/>
  <rect x="48" y="64" width="8" height="8" fill="rgb(18,58,68)"/>
  <rect x="56" y="64" width="8" height="8" fill="rgb(18,58,68)"/>
  <rect x="64" y="64" width="8" height="8" fill="rgb(8,150,175)"/>
  <rect x="72" y="64" width="8" height="8" fill="rgb(18,58,68)"/>
  <rect x="80" y="64" width="8" height="8" fill="rgb(18,58,68)"/>
  <rect x="88" y="64" width="8" height="8" fill="rgb(8,150,175)"/>
  <rect x="16" y="72" width="8" height="8" fill="rgb(25,130,155)"/>
  <rect x="24" y="72" width="8" height="8" fill="rgb(8,150,175)"/>
  <rect x="32" y="72" width="8" height="8" fill="rgb(18,58,68)"/>
  <rect x="40" y="72" width="8" height="8" fill="rgb(18,58,68)"/>
  <rect x="48" y="72" width="8" height="8" fill="rgb(18,58,68)"/>
  <rect x="56" y="72" width="8" height="8" fill="rgb(18,58,68)"/>
  <rect x="64" y="72" width="8" height="8" fill="rgb(8,150,175)"/>
  <rect x="72" y="72" width="8" height="8" fill="rgb(18,58,68)"/>
  <rect x="80" y="72" width="8" height="8" fill="rgb(18,58,68)"/>
  <rect x="88" y="72" width="8" height="8" fill="rgb(18,58,68)"/>
  <rect x="96" y="72" width="8" height="8" fill="rgb(8,150,175)"/>
  <rect x="104" y="72" width="8" height="8" fill="rgb(25,130,155)"/>
  <rect x="24" y="80" width="8" height="8" fill="rgb(8,150,175)"/>
  <rect x="32" y="80" width="8" height="8" fill="rgb(18,58,68)"/>
  <rect x="40" y="80" width="8" height="8" fill="rgb(18,58,68)"/>
  <rect x="48" y="80" width="8" height="8" fill="rgb(18,58,68)"/>
  <rect x="56" y="80" width="8" height="8" fill="rgb(18,58,68)"/>
  <rect x="64" y="80" width="8" height="8" fill="rgb(8,150,175)"/>
  <rect x="72" y="80" width="8" height="8" fill="rgb(18,58,68)"/>
  <rect x="80" y="80" width="8" height="8" fill="rgb(18,58,68)"/>
  <rect x="88" y="80" width="8" height="8" fill="rgb(18,58,68)"/>
  <rect x="96" y="80" width="8" height="8" fill="rgb(8,150,175)"/>
  <rect x="16" y="88" width="8" height="8" fill="rgb(25,130,155)"/>
  <rect x="24" y="88" width="8" height="8" fill="rgb(8,150,175)"/>
  <rect x="32" y="88" width="8" height="8" fill="rgb(18,58,68)"/>
  <rect x="40" y="88" width="8" height="8" fill="rgb(18,58,68)"/>
  <rect x="48" y="88" width="8" height="8" fill="rgb(18,58,68)"/>
  <rect x="56" y="88" width="8" height="8" fill="rgb(18,58,68)"/>
  <rect x="64" y="88" width="8" height="8" fill="rgb(8,150,175)"/>
  <rect x="72" y="88" width="8" height="8" fill="rgb(18,58,68)"/>
  <rect x="80" y="88" width="8" height="8" fill="rgb(18,58,68)"/>
  <rect x="88" y="88" width="8" height="8" fill="rgb(18,58,68)"/>
  <rect x="96" y="88" width="8" height="8" fill="rgb(8,150,175)"/>
  <rect x="104" y="88" width="8" height="8" fill="rgb(25,130,155)"/>
  <rect x="32" y="96" width="8" height="8" fill="rgb(8,150,175)"/>
  <rect x="40" y="96" width="8" height="8" fill="rgb(18,58,68)"/>
  <rect x="48" y="96" width="8" height="8" fill="rgb(18,58,68)"/>
  <rect x="56" y="96" width="8" height="8" fill="rgb(18,58,68)"/>
  <rect x="64" y="96" width="8" height="8" fill="rgb(8,150,175)"/>
  <rect x="72" y="96" width="8" height="8" fill="rgb(18,58,68)"/>
  <rect x="80" y="96" width="8" height="8" fill="rgb(18,58,68)"/>
  <rect x="88" y="96" width="8" height="8" fill="rgb(8,150,175)"/>
  <rect x="40" y="104" width="8" height="8" fill="rgb(8,150,175)"/>
  <rect x="48" y="104" width="8" height="8" fill="rgb(18,58,68)"/>
  <rect x="56" y="104" width="8" height="8" fill="rgb(18,58,68)"/>
  <rect x="64" y="104" width="8" height="8" fill="rgb(8,150,175)"/>
  <rect x="72" y="104" width="8" height="8" fill="rgb(18,58,68)"/>
  <rect x="80" y="104" width="8" height="8" fill="rgb(8,150,175)"/>
  <rect x="56" y="112" width="8" height="8" fill="rgb(8,150,175)"/>
  <rect x="64" y="112" width="8" height="8" fill="rgb(8,150,175)"/>
</svg>
